<?xml version="1.0" encoding="UTF-8"?>
<svg xmlns="http://www.w3.org/2000/svg" xmlns:xlink="http://www.w3.org/1999/xlink" width="1440pt" height="809.999993pt" viewBox="0 0 1440 809.999993" version="1.2">
<defs>
<filter id="alpha" filterUnits="objectBoundingBox" x="0%" y="0%" width="100%" height="100%">
  <feColorMatrix type="matrix" in="SourceGraphic" values="0 0 0 0 1 0 0 0 0 1 0 0 0 0 1 0 0 0 1 0"/>
</filter>
<mask id="mask0">
  <g filter="url(#alpha)">
<rect x="0" y="0" width="1440" height="809.999993" style="fill:rgb(0%,0%,0%);fill-opacity:0.8;stroke:none;"/>
  </g>
</mask>
<clipPath id="clip2">
  <path d="M 0 0 L 327 0 L 327 336.71875 L 0 336.71875 Z M 0 0 "/>
</clipPath>
<clipPath id="clip1">
  <rect x="0" y="0" width="328" height="337"/>
</clipPath>
<g id="surface5" clip-path="url(#clip1)">
<g clip-path="url(#clip2)" clip-rule="nonzero">
<path style=" stroke:none;fill-rule:nonzero;fill:rgb(3.919983%,75.689697%,67.449951%);fill-opacity:1;" d="M 261.632812 -26.542969 C 87.03125 -101.410156 246.539062 -189.796875 124.21875 -237.011719 C 1.902344 -284.226562 -88.421875 -168.304688 -66.925781 -17.972656 C -52.800781 80.5625 -273.167969 256.976562 -94.820312 321.335938 C 83.527344 385.695312 97.535156 227.03125 216.59375 205.417969 C 358.234375 179.574219 351.835938 12.09375 261.632812 -26.542969 Z M 261.632812 -26.542969 "/>
</g>
</g>
<mask id="mask1">
  <g filter="url(#alpha)">
<rect x="0" y="0" width="1440" height="809.999993" style="fill:rgb(0%,0%,0%);fill-opacity:0.8;stroke:none;"/>
  </g>
</mask>
<clipPath id="clip4">
  <path d="M 1 0.0390625 L 360 0.0390625 L 360 229 L 1 229 Z M 1 0.0390625 "/>
</clipPath>
<clipPath id="clip3">
  <rect x="0" y="0" width="360" height="229"/>
</clipPath>
<g id="surface8" clip-path="url(#clip3)">
<g clip-path="url(#clip4)" clip-rule="nonzero">
<path style=" stroke:none;fill-rule:nonzero;fill:rgb(3.919983%,75.689697%,67.449951%);fill-opacity:1;" d="M 66.347656 363.441406 C 240.953125 438.304688 81.441406 526.695312 203.761719 573.90625 C 326.082031 621.121094 416.402344 505.199219 394.910156 354.867188 C 380.78125 256.335938 601.152344 79.917969 422.804688 15.558594 C 244.457031 -48.800781 230.449219 109.867188 111.390625 131.480469 C -30.25 157.320312 -23.851562 324.800781 66.347656 363.441406 Z M 66.347656 363.441406 "/>
</g>
</g>
<mask id="mask2">
  <g filter="url(#alpha)">
<rect x="0" y="0" width="1440" height="809.999993" style="fill:rgb(0%,0%,0%);fill-opacity:0.2;stroke:none;"/>
  </g>
</mask>
<clipPath id="clip6">
  <path d="M 0.558594 0 L 362 0 L 362 203.761719 L 0.558594 203.761719 Z M 0.558594 0 "/>
</clipPath>
<clipPath id="clip5">
  <rect x="0" y="0" width="362" height="204"/>
</clipPath>
<g id="surface11" clip-path="url(#clip5)">
<g clip-path="url(#clip6)" clip-rule="nonzero">
<path style=" stroke:none;fill-rule:nonzero;fill:rgb(3.919983%,75.689697%,67.449951%);fill-opacity:1;" d="M 160.25 -312.191406 C 230.898438 -343.605469 473.289062 -273.976562 522.898438 -190.003906 C 572.507812 -106.03125 576.378906 -48.652344 545.820312 35.425781 C 515.257812 119.503906 439.273438 180.546875 362.769531 191.957031 C 286.261719 203.371094 175.53125 226.300781 106.769531 142.328125 C 38.007812 58.355469 11.320312 50.609375 7.550781 16.265625 C 3.785156 -18.078125 -15.371094 -124.980469 34.238281 -201.414062 C 83.847656 -277.851562 91.488281 -281.621094 160.25 -312.191406 Z M 160.25 -312.191406 "/>
</g>
</g>
<mask id="mask3">
  <g filter="url(#alpha)">
<rect x="0" y="0" width="1440" height="809.999993" style="fill:rgb(0%,0%,0%);fill-opacity:0.2;stroke:none;"/>
  </g>
</mask>
<clipPath id="clip8">
  <path d="M 0 1 L 373 1 L 373 203.824219 L 0 203.824219 Z M 0 1 "/>
</clipPath>
<clipPath id="clip7">
  <rect x="0" y="0" width="374" height="204"/>
</clipPath>
<g id="surface14" clip-path="url(#clip7)">
<g clip-path="url(#clip8)" clip-rule="nonzero">
<path style=" stroke:none;fill-rule:nonzero;fill:rgb(3.919983%,75.689697%,67.449951%);fill-opacity:1;" d="M -32.445312 8.785156 C 38.199219 -22.628906 280.59375 47 330.203125 130.972656 C 379.8125 214.945312 383.683594 272.324219 353.125 356.402344 C 322.5625 440.480469 246.578125 501.523438 170.074219 512.9375 C 93.566406 524.347656 -17.164062 547.277344 -85.925781 463.304688 C -154.6875 379.332031 -181.375 371.585938 -185.144531 337.242188 C -188.914062 302.898438 -208.066406 195.996094 -158.457031 119.5625 C -108.847656 43.128906 -101.207031 39.359375 -32.445312 8.785156 Z M -32.445312 8.785156 "/>
</g>
</g>
<mask id="mask4">
  <g filter="url(#alpha)">
<rect x="0" y="0" width="1440" height="809.999993" style="fill:rgb(0%,0%,0%);fill-opacity:0.498;stroke:none;"/>
  </g>
</mask>
<clipPath id="clip10">
  <path d="M 1 0 L 255.601562 0 L 255.601562 43.921875 L 1 43.921875 Z M 1 0 "/>
</clipPath>
<clipPath id="clip9">
  <rect x="0" y="0" width="256" height="44"/>
</clipPath>
<g id="surface17" clip-path="url(#clip9)">
<g clip-path="url(#clip10)" clip-rule="nonzero">
<path style=" stroke:none;fill-rule:nonzero;fill:rgb(3.919983%,75.689697%,67.449951%);fill-opacity:1;" d="M 192.632812 -219.445312 C 192.632812 -219.445312 166.070312 -222.390625 128.285156 -210.816406 C 71.894531 -193.609375 33.421875 -141.253906 20.773438 -125.363281 C 8.125 -109.472656 -15.695312 -45.855469 20.773438 2.503906 C 57.242188 50.859375 108.363281 52.859375 164.753906 26.339844 C 221.144531 -0.179688 243.699219 -60.429688 253.660156 -126.046875 C 263.621094 -191.660156 221.828125 -217.445312 192.632812 -219.445312 Z M 249.972656 -125.046875 C 240.328125 -61.167969 218.402344 -2.496094 163.699219 23.339844 C 108.996094 49.175781 59.351562 47.175781 23.9375 0.0820312 C -11.480469 -47.011719 11.710938 -108.890625 23.9375 -124.414062 C 36.164062 -139.9375 73.527344 -190.820312 128.285156 -207.605469 C 164.964844 -218.8125 190.734375 -215.972656 190.734375 -215.972656 C 219.035156 -214.023438 259.617188 -188.871094 249.972656 -125.046875 Z M 249.972656 -125.046875 "/>
</g>
</g>
<mask id="mask5">
  <g filter="url(#alpha)">
<rect x="0" y="0" width="1440" height="809.999993" style="fill:rgb(0%,0%,0%);fill-opacity:0.498;stroke:none;"/>
  </g>
</mask>
<clipPath id="clip12">
  <path d="M 1 0.320312 L 255.519531 0.320312 L 255.519531 44 L 1 44 Z M 1 0.320312 "/>
</clipPath>
<clipPath id="clip11">
  <rect x="0" y="0" width="256" height="44"/>
</clipPath>
<g id="surface20" clip-path="url(#clip11)">
<g clip-path="url(#clip12)" clip-rule="nonzero">
<path style=" stroke:none;fill-rule:nonzero;fill:rgb(3.919983%,75.689697%,67.449951%);fill-opacity:1;" d="M 192.734375 1.332031 C 192.734375 1.332031 166.171875 -1.613281 128.386719 9.964844 C 71.996094 27.167969 33.523438 79.523438 20.875 95.417969 C 8.226562 111.308594 -15.59375 174.921875 20.875 223.28125 C 57.34375 271.636719 108.464844 273.636719 164.855469 247.117188 C 221.246094 220.597656 243.800781 160.347656 253.761719 94.730469 C 263.722656 29.117188 221.929688 3.332031 192.734375 1.332031 Z M 250.074219 95.730469 C 240.429688 159.613281 218.507812 218.28125 163.800781 244.117188 C 109.097656 269.953125 59.453125 267.953125 24.039062 220.859375 C -11.378906 173.765625 11.8125 111.886719 24.039062 96.363281 C 36.265625 80.839844 73.628906 29.957031 128.386719 13.171875 C 165.066406 1.964844 190.835938 4.804688 190.835938 4.804688 C 219.136719 6.753906 259.71875 31.90625 250.074219 95.730469 Z M 250.074219 95.730469 "/>
</g>
</g>
<mask id="mask6">
  <g filter="url(#alpha)">
<rect x="0" y="0" width="1440" height="809.999993" style="fill:rgb(0%,0%,0%);fill-opacity:0.2;stroke:none;"/>
  </g>
</mask>
<clipPath id="clip13">
  <rect x="0" y="0" width="464" height="285"/>
</clipPath>
<g id="surface23" clip-path="url(#clip13)">
<path style=" stroke:none;fill-rule:nonzero;fill:rgb(3.919983%,51.759338%,49.409485%);fill-opacity:1;" d="M -109.859375 13.324219 C -10.023438 -31.0625 332.519531 67.332031 402.628906 186 C 472.734375 304.667969 478.207031 385.753906 435.019531 504.570312 C 391.832031 623.386719 284.453125 709.652344 176.335938 725.78125 C 68.214844 741.90625 -88.265625 774.3125 -185.4375 655.644531 C -282.613281 536.976562 -320.328125 526.027344 -325.652344 477.492188 C -330.976562 428.960938 -358.042969 277.886719 -287.9375 169.875 C -217.832031 61.859375 -207.03125 56.53125 -109.859375 13.324219 Z M -109.859375 13.324219 "/>
</g>
<mask id="mask7">
  <g filter="url(#alpha)">
<rect x="0" y="0" width="1440" height="809.999993" style="fill:rgb(0%,0%,0%);fill-opacity:0.8;stroke:none;"/>
  </g>
</mask>
<clipPath id="clip15">
  <path d="M 1 0.320312 L 455 0.320312 L 455 284 L 1 284 Z M 1 0.320312 "/>
</clipPath>
<clipPath id="clip14">
  <rect x="0" y="0" width="455" height="284"/>
</clipPath>
<g id="surface26" clip-path="url(#clip14)">
<g clip-path="url(#clip15)" clip-rule="nonzero">
<path style=" stroke:none;fill-rule:nonzero;fill:rgb(3.919983%,75.689697%,67.449951%);fill-opacity:1;" d="M 86.335938 472.824219 C 313.429688 570.195312 105.96875 685.15625 265.058594 746.5625 C 424.152344 807.96875 541.625 657.203125 513.667969 461.675781 C 495.292969 333.519531 781.910156 104.070312 549.949219 20.363281 C 317.984375 -63.34375 299.765625 143.019531 144.917969 171.132812 C -39.304688 204.738281 -30.980469 422.570312 86.335938 472.824219 Z M 86.335938 472.824219 "/>
</g>
</g>
<mask id="mask8">
  <g filter="url(#alpha)">
<rect x="0" y="0" width="1440" height="809.999993" style="fill:rgb(0%,0%,0%);fill-opacity:0.498;stroke:none;"/>
  </g>
</mask>
<clipPath id="clip17">
  <path d="M 1 0.441406 L 255.640625 0.441406 L 255.640625 29 L 1 29 Z M 1 0.441406 "/>
</clipPath>
<clipPath id="clip16">
  <rect x="0" y="0" width="256" height="29"/>
</clipPath>
<g id="surface29" clip-path="url(#clip16)">
<g clip-path="url(#clip17)" clip-rule="nonzero">
<path style=" stroke:none;fill-rule:nonzero;fill:rgb(3.919983%,75.689697%,67.449951%);fill-opacity:1;" d="M 192.734375 1.332031 C 192.734375 1.332031 166.171875 -1.613281 128.386719 9.960938 C 71.996094 27.167969 33.523438 79.523438 20.875 95.417969 C 8.226562 111.308594 -15.59375 174.921875 20.875 223.28125 C 57.34375 271.636719 108.464844 273.636719 164.855469 247.117188 C 221.246094 220.597656 243.800781 160.347656 253.761719 94.730469 C 263.722656 29.117188 221.929688 3.332031 192.734375 1.332031 Z M 250.074219 95.730469 C 240.429688 159.613281 218.507812 218.28125 163.800781 244.117188 C 109.097656 269.953125 59.453125 267.953125 24.039062 220.859375 C -11.378906 173.765625 11.8125 111.886719 24.039062 96.363281 C 36.265625 80.839844 73.628906 29.957031 128.386719 13.171875 C 165.066406 1.964844 190.835938 4.804688 190.835938 4.804688 C 219.136719 6.753906 259.71875 31.90625 250.074219 95.730469 Z M 250.074219 95.730469 "/>
</g>
</g>
<mask id="mask9">
  <g filter="url(#alpha)">
<rect x="0" y="0" width="1440" height="809.999993" style="fill:rgb(0%,0%,0%);fill-opacity:0.8;stroke:none;"/>
  </g>
</mask>
<clipPath id="clip19">
  <path d="M 0 0 L 409 0 L 409 405.359375 L 0 405.359375 Z M 0 0 "/>
</clipPath>
<clipPath id="clip18">
  <rect x="0" y="0" width="410" height="406"/>
</clipPath>
<g id="surface32" clip-path="url(#clip18)">
<g clip-path="url(#clip19)" clip-rule="nonzero">
<path style=" stroke:none;fill-rule:nonzero;fill:rgb(3.919983%,75.689697%,67.449951%);fill-opacity:1;" d="M 330.699219 -31.933594 C 120.523438 -122.050781 312.53125 -228.449219 165.289062 -285.28125 C 18.050781 -342.113281 -90.671875 -202.574219 -64.800781 -21.617188 C -47.792969 96.988281 -313.058594 309.347656 -98.375 386.816406 C 116.308594 464.289062 133.167969 273.300781 276.484375 247.28125 C 446.976562 216.175781 439.273438 14.578125 330.699219 -31.933594 Z M 330.699219 -31.933594 "/>
</g>
</g>
</defs>
<g id="surface1">
<rect x="0" y="0" width="1440" height="809.999993" style="fill:rgb(100%,100%,100%);fill-opacity:1;stroke:none;"/>
<rect x="0" y="0" width="1440" height="809.999993" style="fill:rgb(100%,100%,100%);fill-opacity:1;stroke:none;"/>
<rect x="0" y="0" width="1440" height="809.999993" style="fill:rgb(100%,100%,100%);fill-opacity:1;stroke:none;"/>
<use xlink:href="#surface5" transform="matrix(1,0,0,1,0,0.000000000000039746)" mask="url(#mask0)"/>
<use xlink:href="#surface8" transform="matrix(1,0,0,1,1080,581)" mask="url(#mask1)"/>
<use xlink:href="#surface11" transform="matrix(1,0,0,1,1078,0.000000000000039746)" mask="url(#mask2)"/>
<use xlink:href="#surface14" transform="matrix(1,0,0,1,0,606)" mask="url(#mask3)"/>
<use xlink:href="#surface17" transform="matrix(1,0,0,1,456,0.000000000000039746)" mask="url(#mask4)"/>
<use xlink:href="#surface20" transform="matrix(1,0,0,1,596,766)" mask="url(#mask5)"/>
<use xlink:href="#surface23" transform="matrix(1,0,0,1,0,525)" mask="url(#mask6)"/>
<use xlink:href="#surface26" transform="matrix(1,0,0,1,985,526)" mask="url(#mask7)"/>
<use xlink:href="#surface29" transform="matrix(1,0,0,1,611,781)" mask="url(#mask8)"/>
<use xlink:href="#surface32" transform="matrix(1,0,0,1,0,0.000000000000039746)" mask="url(#mask9)"/>
</g>
</svg>
